<mxfile host="65bd71144e">
    <diagram id="58hrDNkQqGne8g9HeJg0" name="Page-1">
        <mxGraphModel dx="2980" dy="933" grid="1" gridSize="10" guides="1" tooltips="1" connect="1" arrows="1" fold="1" page="0" pageScale="1" pageWidth="827" pageHeight="3000" math="0" shadow="0">
            <root>
                <mxCell id="0"/>
                <mxCell id="1" parent="0"/>
                <mxCell id="4" value="" style="html=1;whiteSpace=wrap;shape=isoCube2;backgroundOutline=1;isoAngle=15;fillColor=#CC6600;" parent="1" vertex="1">
                    <mxGeometry x="-337.38" y="340" width="547.38" height="570" as="geometry"/>
                </mxCell>
                <mxCell id="2" value="" style="verticalLabelPosition=bottom;html=1;verticalAlign=top;align=center;strokeColor=none;fillColor=#f5f5f5;shape=mxgraph.azure.script_file;pointerEvents=1;fontColor=#333333;" parent="1" vertex="1">
                    <mxGeometry x="-245" y="620" width="100" height="120" as="geometry"/>
                </mxCell>
                <mxCell id="3" value="" style="shape=singleArrow;whiteSpace=wrap;html=1;arrowWidth=0.18000081380208333;arrowSize=0.19045037841796875;rotation=-180;" parent="1" vertex="1">
                    <mxGeometry x="-495" y="655" width="250" height="60" as="geometry"/>
                </mxCell>
                <mxCell id="7" value="" style="aspect=fixed;html=1;points=[];align=center;image;fontSize=12;image=img/lib/azure2/other/Dashboard_Hub.svg;fillColor=#F2F2F2;" parent="1" vertex="1">
                    <mxGeometry x="190" y="614" width="172.62" height="132" as="geometry"/>
                </mxCell>
                <mxCell id="8" value="&lt;span style=&quot;font-size: 18px;&quot;&gt;&lt;font color=&quot;#ffffff&quot;&gt;Automated script running&lt;/font&gt;&lt;/span&gt;" style="text;strokeColor=none;align=center;fillColor=none;html=1;verticalAlign=middle;whiteSpace=wrap;rounded=0;" parent="1" vertex="1">
                    <mxGeometry x="-290" y="750" width="190" height="50" as="geometry"/>
                </mxCell>
                <mxCell id="9" value="&lt;span style=&quot;font-size: 18px;&quot;&gt;Our system&lt;/span&gt;" style="text;strokeColor=none;align=center;fillColor=none;html=1;verticalAlign=middle;whiteSpace=wrap;rounded=0;" parent="1" vertex="1">
                    <mxGeometry x="-158.69" y="940" width="190" height="50" as="geometry"/>
                </mxCell>
                <mxCell id="10" value="&lt;span style=&quot;font-size: 18px;&quot;&gt;Web app&lt;/span&gt;" style="text;strokeColor=none;align=center;fillColor=none;html=1;verticalAlign=middle;whiteSpace=wrap;rounded=0;" parent="1" vertex="1">
                    <mxGeometry x="138.93" y="750" width="247.38" height="50" as="geometry"/>
                </mxCell>
                <mxCell id="12" value="" style="verticalLabelPosition=bottom;sketch=0;html=1;fillColor=#f5f5f5;strokeColor=#666666;verticalAlign=top;pointerEvents=1;align=center;shape=mxgraph.cisco_safe.people_places_things_icons.icon9;fontColor=#333333;" vertex="1" parent="1">
                    <mxGeometry x="-120" y="390" width="120" height="105" as="geometry"/>
                </mxCell>
                <mxCell id="13" value="&lt;span style=&quot;font-size: 18px;&quot;&gt;&lt;font color=&quot;#ffffff&quot;&gt;Course, assignment and group overview&lt;/font&gt;&lt;/span&gt;" style="text;strokeColor=none;align=center;fillColor=none;html=1;verticalAlign=middle;whiteSpace=wrap;rounded=0;" vertex="1" parent="1">
                    <mxGeometry x="-155" y="500" width="190" height="50" as="geometry"/>
                </mxCell>
                <mxCell id="14" value="" style="shape=cylinder3;whiteSpace=wrap;html=1;boundedLbl=1;backgroundOutline=1;size=15;fillColor=#f5f5f5;strokeColor=#666666;fontColor=#333333;" vertex="1" parent="1">
                    <mxGeometry x="20" y="620" width="100" height="120" as="geometry"/>
                </mxCell>
                <mxCell id="15" value="&lt;span style=&quot;font-size: 18px;&quot;&gt;&lt;font color=&quot;#ffffff&quot;&gt;Storing of results from scripts&lt;/font&gt;&lt;/span&gt;" style="text;strokeColor=none;align=center;fillColor=none;html=1;verticalAlign=middle;whiteSpace=wrap;rounded=0;" vertex="1" parent="1">
                    <mxGeometry x="-25" y="750" width="190" height="50" as="geometry"/>
                </mxCell>
                <mxCell id="19" value="" style="verticalLabelPosition=bottom;verticalAlign=top;html=1;shape=mxgraph.infographic.cylinder;rotation=-90;" vertex="1" parent="1">
                    <mxGeometry x="-370" y="640" width="60" height="90" as="geometry"/>
                </mxCell>
            </root>
        </mxGraphModel>
    </diagram>
</mxfile>